<?xml version="1.0" encoding="UTF-8" standalone="no"?>
<svg
   xmlns:dc="http://purl.org/dc/elements/1.1/"
   xmlns:cc="http://creativecommons.org/ns#"
   xmlns:rdf="http://www.w3.org/1999/02/22-rdf-syntax-ns#"
   xmlns:svg="http://www.w3.org/2000/svg"
   xmlns="http://www.w3.org/2000/svg"
   xmlns:sodipodi="http://sodipodi.sourceforge.net/DTD/sodipodi-0.dtd"
   xmlns:inkscape="http://www.inkscape.org/namespaces/inkscape"
   width="512pt"
   height="512pt"
   viewBox="0 0 512 512.00001"
   version="1.1"
   id="svg2"
   inkscape:version="0.91 r13725"
   sodipodi:docname="favicon.svg"
   inkscape:export-filename="/home/elopez/projects/lda-avocat.fr/assets/img/apple-touch-icon-57x57-precomposed.png"
   inkscape:export-xdpi="8.0200005"
   inkscape:export-ydpi="8.0200005">
  <metadata
     id="metadata52">
    <rdf:RDF>
      <cc:Work
         rdf:about="">
        <dc:format>image/svg+xml</dc:format>
        <dc:type
           rdf:resource="http://purl.org/dc/dcmitype/StillImage" />
        <dc:title></dc:title>
      </cc:Work>
    </rdf:RDF>
  </metadata>
  <sodipodi:namedview
     pagecolor="#ffffff"
     bordercolor="#666666"
     borderopacity="1"
     objecttolerance="10"
     gridtolerance="10"
     guidetolerance="10"
     inkscape:pageopacity="0"
     inkscape:pageshadow="2"
     inkscape:window-width="1680"
     inkscape:window-height="1025"
     id="namedview50"
     showgrid="false"
     fit-margin-top="5"
     fit-margin-left="5"
     fit-margin-right="5"
     fit-margin-bottom="5"
     inkscape:zoom="1"
     inkscape:cx="150.99561"
     inkscape:cy="286.56219"
     inkscape:window-x="0"
     inkscape:window-y="0"
     inkscape:window-maximized="1"
     inkscape:current-layer="svg2" />
  <defs
     id="defs4">
    <clipPath
       id="clip1">
      <path
         d="m 36,0 128,0 0,192.5 -128,0 z m 0,0"
         id="path7"
         inkscape:connector-curvature="0" />
    </clipPath>
  </defs>
  <g
     id="g3401"
     transform="matrix(1.75,0,0,1.75,22.556151,87.563573)">
    <path
       style="fill:#a3a6a6;fill-opacity:1;fill-rule:nonzero;stroke:none"
       d="m 183.99609,102.61719 c 1.91407,-25.136721 17.66407,-49.386721 28.39453,-71.52344 -1.80859,2.640625 -3.61718,5.28125 -5.42578,7.921875 0.33203,12.25 3.65235,23.613281 8.13282,34.957031 4.79296,12.140625 9.42578,24.707032 16.09375,35.960934 -0.59766,-1.00781 7.98828,-8.8125 6.51953,-11.289059 -6.19532,-10.457031 -10.19532,-21.9375 -14.91797,-33.09375 -5.0586,-11.949219 -8.88672,-24.183593 -9.24219,-37.246093 0.004,0.136718 -4.73828,6.507812 -5.42578,7.921874 -6.28906,12.980469 -13.44922,25.609376 -18.875,38.992188 -4.92969,12.160156 -10.83203,24.87109 -11.84375,38.11328 0.14453,-1.85937 6.3125,-7.0664 6.58984,-10.71484"
       id="path10"
       inkscape:connector-curvature="0" />
    <path
       style="fill:#a3a6a6;fill-opacity:1;fill-rule:nonzero;stroke:none"
       d="m 30.386719,10.835938 c 6.449219,24.773437 3.8125,51.03125 -1.792969,75.699218 C 22.613281,112.85547 12.589844,138.36719 0,162.20312 c 0.632812,-1.19531 5.003906,-2.78515 6.125,-3.42968 3.386719,-1.94141 6.878906,-3.80078 10.152344,-5.9375 C 27.875,145.25 39.601562,137.86328 51.535156,130.81641 c 1.136719,-0.66797 -1.515625,0.86328 0.367188,-0.21485 1.117187,-0.63281 2.238281,-1.25781 3.359375,-1.88281 2.601562,-1.44922 5.21875,-2.875 7.839843,-4.28906 5.144532,-2.76953 10.332032,-5.46094 15.550782,-8.08985 17.441406,-8.79296 35.363286,-16.68359 53.761716,-23.257809 25.32813,-9.058593 51.78906,-15.367187 78.72266,-16.660156 13.05859,-0.628906 26.11719,0.07813 39.09765,1.570313 0.41407,0.04297 2.27735,-1.242188 2.45704,-1.34375 1.96484,-1.109376 3.91796,-2.230469 5.87109,-3.355469 1.95312,-1.128907 3.89844,-2.257813 5.83984,-3.402344 0.0547,-0.03516 2.11719,-1.492187 2.39063,-1.460937 -19.5625,-2.242188 -39.14844,-2.386719 -58.6875,0.21875 -30.6836,4.089843 -60.33203,14.21875 -88.57031,26.636718 C 77.910156,113.58984 38.285156,137.16016 0.285156,162.01172 c 5.421875,-3.125 10.847656,-6.2461 16.273438,-9.3711 12.398437,-23.46875 22.097656,-48.43749 28.269531,-74.273432 5.96875,-24.992188 8.664063,-51.9375 2.117187,-77.09375 0.07031,0.273437 -7.839843,4.417968 -8.324218,4.699218 -0.53125,0.304688 -8.363282,4.371094 -8.234375,4.863282"
       id="path12"
       inkscape:connector-curvature="0" />
    <path
       inkscape:connector-curvature="0"
       id="path16"
       d="M 68.15625,19.769531 C 86.902344,13.199219 109.99609,15.441406 128,23.210938 c 9.81641,4.234374 18.15625,11.308593 22.89844,20.960937 5.71875,11.632813 5.16797,31.394531 -3.25782,41.375 -10.55468,12.492187 -26.02343,20.566405 -39.94531,28.625005 -14.128904,8.17968 -28.027341,17.21093 -39.984372,28.39062 -13.253907,12.39844 -20.78125,28.35937 -29.289063,43.82812 -0.367187,0.66016 -2.816406,6.58204 -2.214844,6.07813 2.699219,-2.26953 4.503907,-6.38672 6.164063,-9.40234 3.230468,-5.875 5.640625,-12.0625 9.253906,-16.66797 8.664062,-11.05078 20.554688,-19.46875 32.144531,-27.15235 15.347657,-10.17578 32.128909,-18.07421 46.527339,-29.66406 11.46094,-9.22656 19.94141,-21.804686 26.20313,-35.011718 11.33203,-23.910156 9.64062,-51.074218 -15,-65.003906 -18.13672,-10.25 -44.542969,-12.5 -64.21875,-5.601562 -2.265625,0.792968 -4.269531,5.570312 -5.355469,7.445312 -0.441406,0.765625 -3.394531,8.226563 -3.769531,8.359375"
       style="clip-rule:nonzero;fill:#ee2b45;fill-opacity:1;fill-rule:nonzero;stroke:none" />
    <path
       style="fill:#75787a;fill-opacity:1;fill-rule:nonzero;stroke:none"
       d="m 119.77734,136.72266 c 0.48829,0.8164 1.27735,1.23437 2.25,1.23437 1.23829,0 2.21094,-0.75 2.21094,-1.92969 0,-2.7539 -5.07422,-1.14062 -5.07422,-4.8789 0,-1.75 1.50391,-2.69532 3.15625,-2.69532 1.07032,0 2.01563,0.35938 2.6836,1.23829 l -0.79297,0.5664 c -0.45703,-0.63672 -1.07031,-0.97265 -1.91797,-0.97265 -1.17969,0 -2.21094,0.61328 -2.21094,1.86328 0,2.96093 5.07422,1.17968 5.07422,4.8789 0,1.77735 -1.46094,2.76563 -3.05859,2.76563 -1.29297,0 -2.4336,-0.41797 -3.19532,-1.48828 l 0.875,-0.58203"
       id="path18"
       inkscape:connector-curvature="0" />
    <path
       style="fill:#75787a;fill-opacity:1;fill-rule:nonzero;stroke:none"
       d="m 132.38672,137.95703 c 2.57422,0 4.17187,-1.88672 4.17187,-4.33594 0,-2.44531 -1.59765,-4.33593 -4.17187,-4.33593 -2.57031,0 -4.16797,1.89062 -4.16797,4.33593 0,2.44922 1.59766,4.33594 4.16797,4.33594 z m 0,-9.50391 c 3.0039,0 5.08984,2.16797 5.08984,5.16797 0,3.00391 -2.08594,5.17188 -5.08984,5.17188 -3,0 -5.08594,-2.16797 -5.08594,-5.17188 0,-3 2.08594,-5.16797 5.08594,-5.16797"
       id="path20"
       inkscape:connector-curvature="0" />
    <path
       style="fill:#75787a;fill-opacity:1;fill-rule:nonzero;stroke:none"
       d="m 148.33594,137 c -0.92969,1.27734 -2.20703,1.79297 -3.65625,1.79297 -3,0 -5.08594,-2.16797 -5.08594,-5.17188 0,-3 2.08594,-5.16797 5.08594,-5.16797 1.33593,0 2.53125,0.44532 3.39062,1.54297 l -0.75,0.625 c -0.60937,-0.91797 -1.65234,-1.33593 -2.64062,-1.33593 -2.57032,0 -4.16797,1.89062 -4.16797,4.33593 0,2.44922 1.59765,4.33594 4.16797,4.33594 0.98828,0 2.21093,-0.47266 2.90625,-1.52734 l 0.75,0.57031"
       id="path22"
       inkscape:connector-curvature="0" />
    <path
       style="fill:#75787a;fill-opacity:1;fill-rule:nonzero;stroke:none"
       d="m 150.70312,138.54297 0.91797,0 0,-9.83985 -0.91797,0 z m 0,0"
       id="path24"
       inkscape:connector-curvature="0" />
    <path
       style="fill:#75787a;fill-opacity:1;fill-rule:nonzero;stroke:none"
       d="m 158.43359,126.08984 1.11328,0 -1.86328,2 -0.69531,0 z m -3.41797,2.61328 6.01954,0 0,0.83204 -5.10157,0 0,3.5039 4.78125,0 0,0.83203 -4.78125,0 0,3.83985 5.32032,0 0,0.83203 -6.23829,0 0,-9.83985"
       id="path26"
       inkscape:connector-curvature="0" />
    <path
       style="fill:#75787a;fill-opacity:1;fill-rule:nonzero;stroke:none"
       d="m 166.14062,129.53516 -3.36328,0 0,-0.83204 7.64453,0 0,0.83204 -3.36328,0 0,9.00781 -0.91797,0 0,-9.00781"
       id="path28"
       inkscape:connector-curvature="0" />
    <path
       style="fill:#75787a;fill-opacity:1;fill-rule:nonzero;stroke:none"
       d="m 176.05469,126.08984 1.10937,0 -1.86328,2 -0.69141,0 z m -3.42188,2.61328 6.01953,0 0,0.83204 -5.10156,0 0,3.5039 4.78125,0 0,0.83203 -4.78125,0 0,3.83985 5.32422,0 0,0.83203 -6.24219,0 0,-9.83985"
       id="path30"
       inkscape:connector-curvature="0" />
    <path
       style="fill:#75787a;fill-opacity:1;fill-rule:nonzero;stroke:none"
       d="m 186.66406,137.71094 1.89063,0 c 2.61328,0 4.64453,-1.26563 4.64453,-4.08985 0,-2.82031 -2.03125,-4.08593 -4.64453,-4.08593 l -1.89063,0 z m -0.91797,-9.00782 3.04688,0 c 5.11328,0 5.32422,4.19532 5.32422,4.91797 0,0.72266 -0.21094,4.92188 -5.32422,4.92188 l -3.04688,0 0,-9.83985"
       id="path32"
       inkscape:connector-curvature="0" />
    <path
       style="fill:#75787a;fill-opacity:1;fill-rule:nonzero;stroke:none"
       d="m 197.26172,128.70312 1.01172,0 -1.06641,3.16797 -0.82031,0 0.875,-3.16797"
       id="path34"
       inkscape:connector-curvature="0" />
    <path
       style="fill:#75787a;fill-opacity:1;fill-rule:nonzero;stroke:none"
       d="m 204.61719,129.70312 -2.29297,5.39454 4.51562,0 z m -0.42969,-1 0.94141,0 4.14453,9.83985 -1.03125,0 -1.06641,-2.61328 -5.21484,0 -1.10938,2.61328 -0.96094,0 4.29688,-9.83985"
       id="path36"
       inkscape:connector-curvature="0" />
    <path
       style="fill:#75787a;fill-opacity:1;fill-rule:nonzero;stroke:none"
       d="m 209.30469,128.70312 0.98828,0 3.16797,8.63282 3.19531,-8.63282 0.97266,0 -3.73829,9.83985 -0.91406,0 -3.67187,-9.83985"
       id="path38"
       inkscape:connector-curvature="0" />
    <path
       style="fill:#75787a;fill-opacity:1;fill-rule:nonzero;stroke:none"
       d="m 224.08594,137.95703 c 2.57031,0 4.16797,-1.88672 4.16797,-4.33594 0,-2.44531 -1.59766,-4.33593 -4.16797,-4.33593 -2.57032,0 -4.17188,1.89062 -4.17188,4.33593 0,2.44922 1.60156,4.33594 4.17188,4.33594 z m 0,-9.50391 c 3,0 5.08593,2.16797 5.08593,5.16797 0,3.00391 -2.08593,5.17188 -5.08593,5.17188 -3.00391,0 -5.08594,-2.16797 -5.08594,-5.17188 0,-3 2.08203,-5.16797 5.08594,-5.16797"
       id="path40"
       inkscape:connector-curvature="0" />
    <path
       style="fill:#75787a;fill-opacity:1;fill-rule:nonzero;stroke:none"
       d="m 240.01953,137 c -0.93359,1.27734 -2.21094,1.79297 -3.65625,1.79297 -3.00391,0 -5.08594,-2.16797 -5.08594,-5.17188 0,-3 2.08203,-5.16797 5.08594,-5.16797 1.33594,0 2.53125,0.44532 3.39453,1.54297 l -0.75,0.625 c -0.61328,-0.91797 -1.65625,-1.33593 -2.64453,-1.33593 -2.57031,0 -4.16797,1.89062 -4.16797,4.33593 0,2.44922 1.59766,4.33594 4.16797,4.33594 0.98828,0 2.21094,-0.47266 2.90625,-1.52734 l 0.75,0.57031"
       id="path42"
       inkscape:connector-curvature="0" />
    <path
       style="fill:#75787a;fill-opacity:1;fill-rule:nonzero;stroke:none"
       d="m 245.83203,129.70312 -2.28906,5.39454 4.51562,0 z m -0.42969,-1 0.94532,0 4.14453,9.83985 -1.02735,0 -1.07422,-2.61328 -5.21093,0 -1.11328,2.61328 -0.95704,0 4.29297,-9.83985"
       id="path44"
       inkscape:connector-curvature="0" />
    <path
       style="fill:#75787a;fill-opacity:1;fill-rule:nonzero;stroke:none"
       d="m 253.85937,129.53516 -3.36328,0 0,-0.83204 7.64453,0 0,0.83204 -3.36328,0 0,9.00781 -0.91797,0 0,-9.00781"
       id="path46"
       inkscape:connector-curvature="0" />
    <path
       style="fill:#75787a;fill-opacity:1;fill-rule:nonzero;stroke:none"
       d="m 260.61719,136.72266 c 0.48828,0.8164 1.28125,1.23437 2.2539,1.23437 1.23438,0 2.20703,-0.75 2.20703,-1.92969 0,-2.7539 -5.07031,-1.14062 -5.07031,-4.8789 0,-1.75 1.5,-2.69532 3.15235,-2.69532 1.07031,0 2.01562,0.35938 2.68359,1.23829 l -0.78906,0.5664 c -0.46094,-0.63672 -1.07422,-0.97265 -1.92188,-0.97265 -1.17969,0 -2.20703,0.61328 -2.20703,1.86328 0,2.96093 5.07031,1.17968 5.07031,4.8789 0,1.77735 -1.45703,2.76563 -3.05859,2.76563 -1.28906,0 -2.42969,-0.41797 -3.19531,-1.48828 l 0.875,-0.58203"
       id="path48"
       inkscape:connector-curvature="0" />
  </g>
</svg>
